STARTFONT 2.1
FONT -Adobe-Utopia-Bold-I-Normal--25-240-75-75-P-140-ISO8859-2
SIZE 24 75 75
FONTBOUNDINGBOX 37 26 -5 -5
STARTPROPERTIES 29
FOUNDRY "Adobe"
FAMILY_NAME "Utopia"
WEIGHT_NAME "Bold"
SLANT "I"
SETWIDTH_NAME "Normal"
ADD_STYLE_NAME ""
PIXEL_SIZE 25
POINT_SIZE 240
RESOLUTION_X 75
RESOLUTION_Y 75
SPACING "P"
AVERAGE_WIDTH 140
CHARSET_REGISTRY "ISO8859"
CHARSET_ENCODING "2"
CAP_HEIGHT 17
X_HEIGHT 12
RELATIVE_SETWIDTH 50
RELATIVE_WEIGHT 70
WEIGHT 208
FACE_NAME "Utopia Bold Italic"
COPYRIGHT "Copyright (c) 1989, 1991 Adobe Systems Incorporated.  All rights reserved., Copyright 1996 Cub Soft"
NOTICE "Utopia is a registered trademark of Adobe Systems Incorporated."
DESTINATION 0
FONT_ASCENT 21
FONT_DESCENT 5
DEFAULT_CHAR 32
_ADOBE_PSFONT "Utopia-BoldItalic"
_ADOBE_XFONT "-Adobe-Utopia-Bold-I-Normal--25-240-75-75-P-140-ISO8859-2"
_DEC_DEVICE_FONTNAMES "PS=Utopia-BoldItalic"
ENDPROPERTIES
CHARS 191
STARTCHAR space
ENCODING 32
SWIDTH 210 0
DWIDTH 5 0
BBX 0 0 0 0
BITMAP
ENDCHAR
STARTCHAR exclam
ENCODING 33
SWIDTH 285 0
DWIDTH 7 0
BBX 7 17 0 0
BITMAP
1c
3e
3e
3c
3c
3c
38
38
38
30
30
00
00
60
f0
f0
60
ENDCHAR
STARTCHAR quotedbl
ENCODING 34
SWIDTH 455 0
DWIDTH 11 0
BBX 8 9 2 8
BITMAP
77
77
66
66
ee
cc
cc
cc
88
ENDCHAR
STARTCHAR numbersign
ENCODING 35
SWIDTH 560 0
DWIDTH 14 0
BBX 14 16 0 0
BITMAP
0318
0318
0638
0630
1ffc
3ff8
0c60
0c60
18c0
18c0
7ff0
ffe0
3180
3180
6300
6300
ENDCHAR
STARTCHAR dollar
ENCODING 36
SWIDTH 560 0
DWIDTH 14 0
BBX 14 21 0 -2
BITMAP
0040
0040
03f8
0ebc
1c9c
3d8c
3d00
3f00
3f80
3fc0
1fe0
0ff0
07f0
05f0
04f0
ccf0
e8e0
f9c0
7f00
1000
1000
ENDCHAR
STARTCHAR percent
ENCODING 37
SWIDTH 896 0
DWIDTH 22 0
BBX 20 17 1 0
BITMAP
1f0080
39ff80
71c300
71c200
e1c400
e38c00
e39800
671000
3e27c0
006e60
00dc70
019c70
013870
0238e0
0638e0
0c19c0
080f80
ENDCHAR
STARTCHAR ampersand
ENCODING 38
SWIDTH 752 0
DWIDTH 20 0
BBX 19 17 0 0
BITMAP
01f800
073c00
0f1c00
0f1c00
0f1c00
0f1860
07b0e0
07e1e0
0fc1e0
3fe1c0
79e3c0
f8f380
f8fb00
f87e00
f83e00
7c7f80
1fc7e0
ENDCHAR
STARTCHAR apostrophe
ENCODING 39
SWIDTH 246 0
DWIDTH 6 0
BBX 5 9 0 8
BITMAP
30
78
78
38
30
30
60
c0
80
ENDCHAR
STARTCHAR parenleft
ENCODING 40
SWIDTH 350 0
DWIDTH 9 0
BBX 8 20 1 -3
BITMAP
07
0e
1c
1c
38
38
70
70
70
e0
e0
e0
e0
e0
e0
e0
e0
70
70
38
ENDCHAR
STARTCHAR parenright
ENCODING 41
SWIDTH 350 0
DWIDTH 9 0
BBX 8 20 -1 -3
BITMAP
1c
0e
0e
07
07
07
07
07
07
07
07
0e
0e
0e
1c
1c
38
38
70
e0
ENDCHAR
STARTCHAR asterisk
ENCODING 42
SWIDTH 500 0
DWIDTH 12 0
BBX 10 10 1 7
BITMAP
0600
0600
64c0
75c0
1e00
1e00
eb80
c980
1800
1800
ENDCHAR
STARTCHAR plus
ENCODING 43
SWIDTH 600 0
DWIDTH 15 0
BBX 13 12 1 0
BITMAP
0700
0700
0700
0700
0700
fff8
fff8
0700
0700
0700
0700
0700
ENDCHAR
STARTCHAR comma
ENCODING 44
SWIDTH 280 0
DWIDTH 7 0
BBX 5 9 -1 -5
BITMAP
30
78
78
38
30
30
60
c0
80
ENDCHAR
STARTCHAR minus
ENCODING 45
SWIDTH 600 0
DWIDTH 15 0
BBX 12 2 2 5
BITMAP
fff0
fff0
ENDCHAR
STARTCHAR period
ENCODING 46
SWIDTH 280 0
DWIDTH 7 0
BBX 4 4 0 0
BITMAP
60
f0
f0
60
ENDCHAR
STARTCHAR slash
ENCODING 47
SWIDTH 260 0
DWIDTH 10 0
BBX 7 17 1 0
BITMAP
06
06
0c
0c
0c
18
18
18
30
30
30
60
60
60
c0
c0
c0
ENDCHAR
STARTCHAR zero
ENCODING 48
SWIDTH 560 0
DWIDTH 14 0
BBX 14 17 0 0
BITMAP
03e0
0f38
1e38
3c3c
3c3c
7c3c
783c
783c
f87c
f078
f078
f0f8
f0f0
f0f0
71e0
73c0
1f00
ENDCHAR
STARTCHAR one
ENCODING 49
SWIDTH 560 0
DWIDTH 14 0
BBX 11 17 1 0
BITMAP
03e0
1fe0
07c0
07c0
07c0
07c0
0f80
0f80
0f80
0f80
0f80
1f00
1f00
1f00
1f00
3f00
ffc0
ENDCHAR
STARTCHAR two
ENCODING 50
SWIDTH 560 0
DWIDTH 14 0
BBX 14 17 0 0
BITMAP
07e0
1e78
3c78
187c
007c
00fc
00f8
01f0
03e0
0780
0e00
1c00
3810
7030
fff0
ffe0
ffe0
ENDCHAR
STARTCHAR three
ENCODING 51
SWIDTH 560 0
DWIDTH 14 0
BBX 14 17 0 0
BITMAP
07f0
1e78
3c7c
187c
007c
00f8
01f0
1fc0
03e0
01f0
01f0
01f0
01f0
c1e0
e1e0
f3c0
7f00
ENDCHAR
STARTCHAR four
ENCODING 52
SWIDTH 560 0
DWIDTH 14 0
BBX 13 17 0 0
BITMAP
0180
03c0
03c0
0790
0730
0e70
1cf0
39f0
31e0
63e0
c3e0
fff8
7ff0
07c0
07c0
0fc0
3ff0
ENDCHAR
STARTCHAR five
ENCODING 53
SWIDTH 560 0
DWIDTH 14 0
BBX 14 17 0 0
BITMAP
0ffc
0ff8
0ff0
0c00
1800
1800
1800
3fc0
33e0
01f0
01f0
01f0
01f0
c1e0
e1e0
f3c0
7f00
ENDCHAR
STARTCHAR six
ENCODING 54
SWIDTH 560 0
DWIDTH 14 0
BBX 13 17 1 0
BITMAP
01f0
0778
1e38
1e18
3c00
3c00
7c00
7bc0
7de0
f8f0
f0f0
f0f0
f0f0
f0f0
71e0
73c0
1f00
ENDCHAR
STARTCHAR seven
ENCODING 55
SWIDTH 560 0
DWIDTH 14 0
BBX 13 17 1 0
BITMAP
7ff8
7ff8
fff0
8070
0060
00c0
0180
0380
0700
0f00
1e00
3e00
3c00
7c00
7c00
7c00
3800
ENDCHAR
STARTCHAR eight
ENCODING 56
SWIDTH 560 0
DWIDTH 14 0
BBX 14 17 0 0
BITMAP
03f0
0f38
1e3c
1e3c
1e3c
1e3c
0f78
0ff0
1fe0
3df0
78f8
f8f8
f0f8
f0f8
f0f0
71e0
3f80
ENDCHAR
STARTCHAR nine
ENCODING 57
SWIDTH 560 0
DWIDTH 14 0
BBX 13 17 0 0
BITMAP
07c0
1e70
3c70
7878
7878
7878
7878
78f8
3df0
1ef0
01f0
01e0
01e0
c3c0
e3c0
f700
7c00
ENDCHAR
STARTCHAR colon
ENCODING 58
SWIDTH 280 0
DWIDTH 7 0
BBX 6 12 0 0
BITMAP
18
3c
3c
18
00
00
00
00
60
f0
f0
60
ENDCHAR
STARTCHAR semicolon
ENCODING 59
SWIDTH 280 0
DWIDTH 7 0
BBX 7 17 -1 -5
BITMAP
0c
1e
1e
0c
00
00
00
00
30
78
78
38
30
30
60
c0
80
ENDCHAR
STARTCHAR less
ENCODING 60
SWIDTH 600 0
DWIDTH 15 0
BBX 12 12 1 0
BITMAP
0030
00f0
03c0
0f00
3c00
f000
f000
3c00
0f00
03c0
00f0
0030
ENDCHAR
STARTCHAR equal
ENCODING 61
SWIDTH 600 0
DWIDTH 15 0
BBX 13 8 1 2
BITMAP
fff8
fff8
0000
0000
0000
0000
fff8
fff8
ENDCHAR
STARTCHAR greater
ENCODING 62
SWIDTH 600 0
DWIDTH 15 0
BBX 12 12 1 0
BITMAP
c000
f000
3c00
0f00
03c0
00f0
00f0
03c0
0f00
3c00
f000
c000
ENDCHAR
STARTCHAR question
ENCODING 63
SWIDTH 454 0
DWIDTH 12 0
BBX 10 17 1 0
BITMAP
1f00
7b80
f3c0
63c0
03c0
0780
0e00
3800
7000
f000
fc00
7800
0000
6000
f000
f000
6000
ENDCHAR
STARTCHAR at
ENCODING 64
SWIDTH 828 0
DWIDTH 23 0
BBX 19 17 2 0
BITMAP
03fe00
0f0380
1c00c0
386f60
71de60
738e60
e38e60
e70e60
e71c60
e71c60
e73cc0
e75d80
738f00
700000
380000
1e0600
07fc00
ENDCHAR
STARTCHAR A
ENCODING 65
SWIDTH 634 0
DWIDTH 16 0
BBX 18 17 -2 0
BITMAP
007c00
007c00
00fc00
00fc00
01fc00
013e00
033e00
023e00
063e00
043e00
0ffe00
081f00
181f00
101f00
301f00
701f80
f83fc0
ENDCHAR
STARTCHAR B
ENCODING 66
SWIDTH 680 0
DWIDTH 17 0
BBX 17 17 -1 0
BITMAP
1ffe00
0fcf00
0f8f80
0f8f80
0f8f80
0f8f00
1f1e00
1ff800
1f3e00
1f1f00
1f1f00
3e1f00
3e1f00
3e1f00
3e1e00
7e3c00
fff000
ENDCHAR
STARTCHAR C
ENCODING 67
SWIDTH 672 0
DWIDTH 17 0
BBX 16 17 0 0
BITMAP
03ff
0f87
1f02
3e02
3e00
7c00
7c00
7c00
f800
f800
f800
f800
f804
780c
781c
3c38
0fe0
ENDCHAR
STARTCHAR D
ENCODING 68
SWIDTH 774 0
DWIDTH 20 0
BBX 20 17 -1 0
BITMAP
1fff00
0fc3c0
0f81e0
0f81e0
0f81f0
0f81f0
1f01f0
1f01f0
1f01f0
1f03e0
1f03e0
3e03e0
3e07c0
3e07c0
3e0f80
7e1f00
fffc00
ENDCHAR
STARTCHAR E
ENCODING 69
SWIDTH 622 0
DWIDTH 16 0
BBX 16 17 -1 0
BITMAP
1fff
0fc7
0f82
0f82
0f80
0f84
1f0c
1ffc
1f08
1f08
1f00
3e00
3e02
3e06
3e0e
7e1c
fffc
ENDCHAR
STARTCHAR F
ENCODING 70
SWIDTH 585 0
DWIDTH 15 0
BBX 16 17 -1 0
BITMAP
1fff
0fc7
0f82
0f82
0f80
1f00
1f04
1f0c
1ffc
1f08
1f08
3e00
3e00
3e00
3e00
7e00
ff00
ENDCHAR
STARTCHAR G
ENCODING 71
SWIDTH 726 0
DWIDTH 18 0
BBX 17 17 0 0
BITMAP
03ff00
0f8700
1f0200
3e0200
3e0000
7c0000
7c0000
7c0000
f80000
f80000
f8ff80
f83e00
f83e00
783e00
783e00
3c7c00
0ff000
ENDCHAR
STARTCHAR H
ENCODING 72
SWIDTH 800 0
DWIDTH 20 0
BBX 21 17 -1 0
BITMAP
1fe7f8
0fc3f0
0f83e0
0f83e0
0f83e0
1f07c0
1f07c0
1f07c0
1fffc0
1f07c0
1f07c0
3e0f80
3e0f80
3e0f80
3e0f80
7e1f80
ff3fc0
ENDCHAR
STARTCHAR I
ENCODING 73
SWIDTH 386 0
DWIDTH 10 0
BBX 11 17 -1 0
BITMAP
1fe0
0fc0
0f80
0f80
0f80
1f00
1f00
1f00
1f00
1f00
1f00
3e00
3e00
3e00
3e00
7e00
ff00
ENDCHAR
STARTCHAR J
ENCODING 74
SWIDTH 388 0
DWIDTH 10 0
BBX 13 20 -3 -3
BITMAP
07f8
03f0
03e0
03e0
03e0
07c0
07c0
07c0
07c0
07c0
0f80
0f80
0f80
0f80
0f80
1f00
1f00
1e00
3c00
f000
ENDCHAR
STARTCHAR K
ENCODING 75
SWIDTH 688 0
DWIDTH 17 0
BBX 19 17 -1 0
BITMAP
1fe3e0
0fc380
0f8300
0f8600
0f8c00
0f9800
1f3000
1f7800
1ff800
1ffc00
1f7c00
3e7e00
3e3e00
3e3f00
3e1f00
7e1f80
ff0fc0
ENDCHAR
STARTCHAR L
ENCODING 76
SWIDTH 586 0
DWIDTH 15 0
BBX 15 17 -1 0
BITMAP
1fe0
0fc0
0f80
0f80
0f80
0f80
1f00
1f00
1f00
1f00
1f00
3e00
3e02
3e06
3e0e
7e1c
fffc
ENDCHAR
STARTCHAR M
ENCODING 77
SWIDTH 921 0
DWIDTH 23 0
BBX 25 17 -1 0
BITMAP
1fe07f80
0fe07f00
0fe0fe00
0fe0be00
0fe1be00
1be17c00
19f37c00
19f27c00
19f67c00
19f47c00
19fc7c00
30f8f800
30f8f800
30f0f800
30f0f800
70e1f800
f8e3fc00
ENDCHAR
STARTCHAR N
ENCODING 78
SWIDTH 741 0
DWIDTH 19 0
BBX 20 17 -1 0
BITMAP
1f81f0
0f80e0
0fc0c0
0fc0c0
0fe0c0
1be180
1bf180
19f180
19f980
18f980
18fd80
307d00
307f00
303f00
303f00
701f00
f81f00
ENDCHAR
STARTCHAR O
ENCODING 79
SWIDTH 761 0
DWIDTH 19 0
BBX 18 17 0 0
BITMAP
03fc00
0f8f00
1f0780
3e0780
3e07c0
7c07c0
7c07c0
7c07c0
f807c0
f80f80
f80f80
f80f80
f81f00
781f00
783e00
3c7c00
0ff000
ENDCHAR
STARTCHAR P
ENCODING 80
SWIDTH 660 0
DWIDTH 17 0
BBX 17 17 -1 0
BITMAP
1ffe00
0fcf00
0f8f80
0f8f80
0f8f80
1f0f80
1f0f80
1f1f00
1f1e00
1ff800
1f0000
3e0000
3e0000
3e0000
3e0000
7e0000
ff0000
ENDCHAR
STARTCHAR Q
ENCODING 81
SWIDTH 761 0
DWIDTH 19 0
BBX 18 22 0 -5
BITMAP
03fc00
0f8f00
1f0780
3e0780
3e07c0
7c07c0
7c07c0
7c07c0
f807c0
f80f80
f80f80
f80f80
f81f00
781f00
783e00
3c7c00
0ff000
01e000
01f000
00f800
00fc00
003f00
ENDCHAR
STARTCHAR R
ENCODING 82
SWIDTH 681 0
DWIDTH 17 0
BBX 18 17 -1 0
BITMAP
1ffe00
0fcf00
0f8f80
0f8f80
0f8f80
1f0f80
1f0f00
1f1e00
1ffc00
1f3e00
1f3e00
3e3e00
3e1f00
3e1f00
3e1f00
7e1f80
ff0fc0
ENDCHAR
STARTCHAR S
ENCODING 83
SWIDTH 551 0
DWIDTH 14 0
BBX 13 17 0 0
BITMAP
03f8
0f38
1e10
3e10
3e00
3f00
3f80
1fc0
0fe0
07f0
03f0
01f0
41f0
41f0
e1e0
f3c0
7f00
ENDCHAR
STARTCHAR T
ENCODING 84
SWIDTH 616 0
DWIDTH 16 0
BBX 16 17 1 0
BITMAP
ffff
e7e7
c7c2
87c2
07c0
0f80
0f80
0f80
0f80
0f80
0f80
1f00
1f00
1f00
1f00
3f00
7f80
ENDCHAR
STARTCHAR U
ENCODING 85
SWIDTH 776 0
DWIDTH 19 0
BBX 19 17 1 0
BITMAP
7f9fe0
3f0fc0
3e0f80
3e0f80
3e0f80
7c1f00
7c1f00
7c1f00
7c1f00
7c1f00
f83e00
f83e00
f83e00
f83e00
f83c00
7c7800
1fe000
ENDCHAR
STARTCHAR V
ENCODING 86
SWIDTH 630 0
DWIDTH 16 0
BBX 18 17 0 0
BITMAP
ff07c0
7e0380
3e0300
3e0200
3e0600
3e0400
1f0c00
1f0800
1f1800
1f1000
1f3000
1f2000
0fe000
0fc000
0fc000
0f8000
0f8000
ENDCHAR
STARTCHAR W
ENCODING 87
SWIDTH 920 0
DWIDTH 23 0
BBX 25 17 0 0
BITMAP
ff1f0f80
7e1f0700
3e1f0600
3e1f0400
3e1f0c00
3e1f0800
3e3f1800
3e3f1000
1f6fb000
1f4fa000
1fcfe000
1f8fc000
1f8fc000
1f0f8000
1f0f8000
1e0f0000
1e0f0000
ENDCHAR
STARTCHAR X
ENCODING 88
SWIDTH 630 0
DWIDTH 16 0
BBX 18 17 -1 0
BITMAP
1fe7c0
0fc380
07c300
07c200
03e400
03f800
03f800
01f000
01f000
03f000
03f800
04f800
08f800
187c00
307c00
707e00
f8ff00
ENDCHAR
STARTCHAR Y
ENCODING 89
SWIDTH 622 0
DWIDTH 16 0
BBX 16 17 1 0
BITMAP
fe1f
7c0e
7c0c
7c18
3e30
3e20
3e40
3ec0
1f80
1f00
1f00
1f00
3e00
3e00
3e00
7e00
ff00
ENDCHAR
STARTCHAR Z
ENCODING 90
SWIDTH 618 0
DWIDTH 16 0
BBX 15 17 0 0
BITMAP
1ffe
1c3e
187c
30f8
20f8
01f0
03e0
07c0
07c0
0f80
1f00
3e00
3e04
7c0c
f818
f838
fff8
ENDCHAR
STARTCHAR bracketleft
ENCODING 91
SWIDTH 350 0
DWIDTH 9 0
BBX 8 20 1 -3
BITMAP
1f
1c
1c
1c
1c
38
38
38
38
38
70
70
70
70
70
e0
e0
e0
e0
f8
ENDCHAR
STARTCHAR backslash
ENCODING 92
SWIDTH 460 0
DWIDTH 11 0
BBX 7 17 2 0
BITMAP
c0
c0
60
60
60
30
30
30
18
18
18
0c
0c
0c
06
06
06
ENDCHAR
STARTCHAR bracketright
ENCODING 93
SWIDTH 350 0
DWIDTH 9 0
BBX 8 20 -1 -3
BITMAP
1f
07
07
07
07
0e
0e
0e
0e
0e
1c
1c
1c
1c
1c
38
38
38
38
f8
ENDCHAR
STARTCHAR asciicircum
ENCODING 94
SWIDTH 600 0
DWIDTH 15 0
BBX 10 10 2 7
BITMAP
0c00
0c00
1e00
1e00
3300
3300
6180
6180
c0c0
c0c0
ENDCHAR
STARTCHAR underscore
ENCODING 95
SWIDTH 500 0
DWIDTH 12 0
BBX 12 1 0 -4
BITMAP
fff0
ENDCHAR
STARTCHAR grave
ENCODING 96
SWIDTH 400 0
DWIDTH 10 0
BBX 6 5 2 14
BITMAP
40
e0
f0
38
0c
ENDCHAR
STARTCHAR a
ENCODING 97
SWIDTH 596 0
DWIDTH 15 0
BBX 15 13 0 0
BITMAP
07fc
1e7c
3c7c
3c7c
7cf8
78f8
f8f8
f8f8
f9f0
f9f2
fbf4
7df8
38f0
ENDCHAR
STARTCHAR b
ENCODING 98
SWIDTH 586 0
DWIDTH 15 0
BBX 14 19 0 0
BITMAP
0f00
7f00
1f00
1f00
1f00
3e00
3e70
3ef8
3d7c
7e7c
7c7c
7c7c
7c7c
7c78
f8f8
f8f0
f8f0
fde0
e780
ENDCHAR
STARTCHAR c
ENCODING 99
SWIDTH 456 0
DWIDTH 12 0
BBX 12 13 0 0
BITMAP
07e0
1e70
3c70
7c20
7c00
f800
f800
f800
f800
f820
f860
7cc0
3f00
ENDCHAR
STARTCHAR d
ENCODING 100
SWIDTH 609 0
DWIDTH 15 0
BBX 15 19 0 0
BITMAP
001e
00fe
003e
003e
003e
007c
07fc
1e7c
3c7c
3c7c
7cf8
78f8
f8f8
f8f8
f9f0
f9f2
fbf4
7df8
38f0
ENDCHAR
STARTCHAR e
ENCODING 101
SWIDTH 476 0
DWIDTH 12 0
BBX 12 13 0 0
BITMAP
07e0
1ef0
3cf0
7cf0
7de0
f9c0
fb80
fe00
f800
f820
f860
7cc0
3f00
ENDCHAR
STARTCHAR f
ENCODING 102
SWIDTH 348 0
DWIDTH 9 0
BBX 16 24 -4 -5
BITMAP
003e
0077
00f3
01f0
01f0
01f0
0ffc
03e0
03e0
03e0
03e0
07c0
07c0
07c0
07c0
07c0
0f80
0f80
0f80
0f80
0f80
cf00
ee00
7c00
ENDCHAR
STARTCHAR g
ENCODING 103
SWIDTH 522 0
DWIDTH 13 0
BBX 16 18 -2 -5
BITMAP
03f9
0f3f
1e3c
3e3c
3e3c
3e3c
1e78
07e0
1e00
3f80
1fe0
0ff8
1ffc
78fc
f03c
f038
7870
1fc0
ENDCHAR
STARTCHAR h
ENCODING 104
SWIDTH 629 0
DWIDTH 16 0
BBX 16 19 0 0
BITMAP
0f00
7f00
1f00
1f00
1f00
3e00
3e3c
3e7e
3ebe
3d3e
7e7c
7e7c
7c7c
7c7c
7c7c
f8f9
f8fa
f8fc
f878
ENDCHAR
STARTCHAR i
ENCODING 105
SWIDTH 339 0
DWIDTH 8 0
BBX 8 18 0 0
BITMAP
0e
1f
1f
0e
00
1e
fe
3e
3e
3c
7c
7c
7c
78
f9
fa
fc
78
ENDCHAR
STARTCHAR j
ENCODING 106
SWIDTH 333 0
DWIDTH 8 0
BBX 12 23 -4 -5
BITMAP
00e0
01f0
01f0
00e0
0000
01e0
0fe0
03e0
03e0
03e0
03e0
07c0
07c0
07c0
07c0
07c0
07c0
0f80
0f80
0f80
cf80
ef00
7c00
ENDCHAR
STARTCHAR k
ENCODING 107
SWIDTH 570 0
DWIDTH 15 0
BBX 15 19 0 0
BITMAP
0f80
7f80
0f80
1f00
1f00
1f00
1f06
3e1e
3e3e
3e64
3ee0
3de0
7fe0
7df0
7df0
7cf2
f8fc
f8fc
f878
ENDCHAR
STARTCHAR l
ENCODING 108
SWIDTH 327 0
DWIDTH 8 0
BBX 8 19 0 0
BITMAP
0f
7f
1f
1f
1f
3e
3e
3e
3e
7c
7c
7c
7c
7c
f8
f9
fa
fc
78
ENDCHAR
STARTCHAR m
ENCODING 109
SWIDTH 914 0
DWIDTH 23 0
BBX 24 13 0 0
BITMAP
1e3c3c
fe7e7e
3ebebe
3d3f3e
3e3e3e
7e7e7c
7c7c7c
7c7c7c
7c7c7c
f8f8f9
f8f8fa
f8f8fc
f8f878
ENDCHAR
STARTCHAR n
ENCODING 110
SWIDTH 635 0
DWIDTH 16 0
BBX 16 13 0 0
BITMAP
1e3c
fe7e
3ebe
3d3e
3e3e
7e7c
7c7c
7c7c
7c7c
f8f9
f8fa
f8fc
f878
ENDCHAR
STARTCHAR o
ENCODING 111
SWIDTH 562 0
DWIDTH 14 0
BBX 14 13 0 0
BITMAP
07f0
1ef8
3c7c
7c7c
7c7c
f87c
f87c
f87c
f8f8
f8f8
f8f0
7de0
3f80
ENDCHAR
STARTCHAR p
ENCODING 112
SWIDTH 606 0
DWIDTH 15 0
BBX 15 18 -1 -5
BITMAP
1f38
7f7c
1fbe
1f3e
3e3e
3e3e
3e3e
3e3c
3e7c
7c78
7c78
7ef0
7fc0
7c00
f800
f800
f800
f800
ENDCHAR
STARTCHAR q
ENCODING 113
SWIDTH 584 0
DWIDTH 15 0
BBX 14 18 0 -5
BITMAP
07fc
1e7c
3c7c
3c7c
7cf8
78f8
f8f8
f8f8
f8f8
f9f0
fbf0
7df0
39f0
01f0
03e0
03e0
03e0
03e0
ENDCHAR
STARTCHAR r
ENCODING 114
SWIDTH 440 0
DWIDTH 11 0
BBX 13 13 0 0
BITMAP
1e70
fef8
3f78
3e30
3e00
7c00
7c00
7c00
7c00
f800
f800
f800
f800
ENDCHAR
STARTCHAR s
ENCODING 115
SWIDTH 417 0
DWIDTH 10 0
BBX 12 13 -1 0
BITMAP
07e0
1cf0
3c70
3e20
3f00
1f00
1f80
0fc0
07c0
43c0
e3c0
f380
7e00
ENDCHAR
STARTCHAR t
ENCODING 116
SWIDTH 359 0
DWIDTH 9 0
BBX 10 17 0 0
BITMAP
0200
0600
1e00
3e00
ffc0
3e00
3e00
7c00
7c00
7c00
7c00
7c00
f800
f900
fa00
fc00
7800
ENDCHAR
STARTCHAR u
ENCODING 117
SWIDTH 634 0
DWIDTH 16 0
BBX 16 13 0 0
BITMAP
1e3e
fe3e
3e3e
3e3e
7c7c
7c7c
7c7c
7cfc
7cfc
f979
fafa
fcfc
7878
ENDCHAR
STARTCHAR v
ENCODING 118
SWIDTH 518 0
DWIDTH 13 0
BBX 13 13 0 0
BITMAP
1e38
7e78
3e38
3c38
7c30
7c30
7c30
7c60
f840
f8c0
f880
f900
7e00
ENDCHAR
STARTCHAR w
ENCODING 119
SWIDTH 795 0
DWIDTH 20 0
BBX 20 13 0 0
BITMAP
1e3e70
7e3c70
3e3c70
3c7c70
7c7c60
7c7860
7c7860
7cf8c0
f8f880
f8f980
f9f900
fafe00
7c7c00
ENDCHAR
STARTCHAR x
ENCODING 120
SWIDTH 516 0
DWIDTH 13 0
BBX 14 13 -1 0
BITMAP
0f1c
3f3c
1f38
0f40
0f80
0f80
0780
07c0
07c4
6bc8
f3f0
f3e0
61c0
ENDCHAR
STARTCHAR y
ENCODING 121
SWIDTH 489 0
DWIDTH 12 0
BBX 15 18 -3 -5
BITMAP
078e
3f9e
0f8e
0f8e
0f8e
0f8c
07cc
07c8
07d0
07d0
07e0
07c0
0780
0780
6700
f600
f400
7800
ENDCHAR
STARTCHAR z
ENCODING 122
SWIDTH 466 0
DWIDTH 12 0
BBX 13 13 -1 0
BITMAP
1ff8
1ff0
3fe0
31c0
2180
0300
0600
0c10
1c30
3ff0
7fe0
ffc0
c780
ENDCHAR
STARTCHAR braceleft
ENCODING 123
SWIDTH 340 0
DWIDTH 8 0
BBX 9 20 -1 -3
BITMAP
0780
0e00
0e00
0e00
0e00
1c00
1c00
1c00
1800
e000
3000
3800
3800
3800
7000
7000
7000
7000
7000
3c00
ENDCHAR
STARTCHAR bar
ENCODING 124
SWIDTH 265 0
DWIDTH 7 0
BBX 3 17 2 0
BITMAP
e0
e0
e0
e0
e0
e0
e0
e0
e0
e0
e0
e0
e0
e0
e0
e0
e0
ENDCHAR
STARTCHAR braceright
ENCODING 125
SWIDTH 340 0
DWIDTH 8 0
BBX 9 20 -1 -3
BITMAP
1e00
0700
0700
0700
0700
0e00
0e00
0e00
0600
0380
0c00
1c00
1c00
1c00
1c00
3800
3800
3800
3800
f000
ENDCHAR
STARTCHAR asciitilde
ENCODING 126
SWIDTH 600 0
DWIDTH 15 0
BBX 13 3 1 5
BITMAP
3e18
7ff0
c3e0
ENDCHAR
STARTCHAR nobreakspace
ENCODING 160
SWIDTH 210 0
DWIDTH 5 0
BBX 0 0 0 0
BITMAP
ENDCHAR
STARTCHAR Aogonek
ENCODING 161
SWIDTH 634 0
DWIDTH 16 0
BBX 18 22 -2 -5
BITMAP
007c00
007c00
00fc00
00fc00
01fc00
013e00
033e00
023e00
063e00
043e00
0ffe00
081f00
181f00
101f00
301f00
701f80
f83fc0
00c000
018000
030000
032000
01c000
ENDCHAR
STARTCHAR breve
ENCODING 162
SWIDTH 400 0
DWIDTH 10 0
BBX 8 4 1 14
BITMAP
81
c3
7e
3c
ENDCHAR
STARTCHAR Lstroke
ENCODING 163
SWIDTH 592 0
DWIDTH 15 0
BBX 15 17 0 0
BITMAP
1fe0
0fc0
0f80
0f80
0fb0
0fc0
1f00
1f00
3f00
df00
1f00
3e00
3e02
3e06
3e0e
7e1c
fffc
ENDCHAR
STARTCHAR currency
ENCODING 164
SWIDTH 560 0
DWIDTH 14 0
BBX 12 12 1 3
BITMAP
cf30
fff0
70e0
6060
c030
c030
c030
c030
6060
70e0
fff0
cf30
ENDCHAR
STARTCHAR Lcaron
ENCODING 165
SWIDTH 680 0
DWIDTH 17 0
BBX 17 20 -1 0
BITMAP
000300
000780
000780
1fe380
0fc300
0f8300
0f8600
0f8c00
0f8800
1f0000
1f0000
1f0000
1f0000
1f0000
3e0000
3e0200
3e0600
3e0e00
7e1c00
fffc00
ENDCHAR
STARTCHAR Sacute
ENCODING 166
SWIDTH 551 0
DWIDTH 14 0
BBX 14 23 0 0
BITMAP
0008
001c
003c
0070
00c0
0000
03f8
0f38
1e10
3e10
3e00
3f00
3f80
1fc0
0fe0
07f0
03f0
01f0
41f0
41f0
e1e0
f3c0
7f00
ENDCHAR
STARTCHAR section
ENCODING 167
SWIDTH 568 0
DWIDTH 14 0
BBX 12 20 1 -3
BITMAP
03e0
0670
0c30
0c00
1e00
2f00
4780
c3c0
e1e0
f0e0
7860
3c60
1e60
0f40
0780
0300
0300
c300
e600
7c00
ENDCHAR
STARTCHAR diaeresis
ENCODING 168
SWIDTH 400 0
DWIDTH 10 0
BBX 10 4 0 14
BITMAP
6180
f3c0
f3c0
6180
ENDCHAR
STARTCHAR Scaron
ENCODING 169
SWIDTH 551 0
DWIDTH 14 0
BBX 13 22 0 0
BITMAP
0618
0330
01e0
00c0
0000
03f8
0f38
1e10
3e10
3e00
3f00
3f80
1fc0
0fe0
07f0
03f0
01f0
41f0
41f0
e1e0
f3c0
7f00
ENDCHAR
STARTCHAR Scedilla
ENCODING 170
SWIDTH 551 0
DWIDTH 14 0
BBX 13 22 0 -5
BITMAP
03f8
0f38
1e10
3e10
3e00
3f00
3f80
1fc0
0fe0
07f0
03f0
01f0
41f0
41f0
e1e0
f3c0
7f00
0200
0700
0180
0180
0f00
ENDCHAR
STARTCHAR Tcaron
ENCODING 171
SWIDTH 616 0
DWIDTH 16 0
BBX 16 22 1 0
BITMAP
0618
0330
01e0
00c0
0000
ffff
e7e7
c7c2
87c2
07c0
0f80
0f80
0f80
0f80
0f80
0f80
1f00
1f00
1f00
1f00
3f00
7f80
ENDCHAR
STARTCHAR Zacute
ENCODING 172
SWIDTH 618 0
DWIDTH 16 0
BBX 15 23 0 0
BITMAP
0004
000e
001e
0038
0060
0000
1ffe
1c3e
187c
30f8
20f8
01f0
03e0
07c0
07c0
0f80
1f00
3e00
3e04
7c0c
f818
f838
fff8
ENDCHAR
STARTCHAR hyphen
ENCODING 173
SWIDTH 392 0
DWIDTH 10 0
BBX 8 2 1 5
BITMAP
7f
fe
ENDCHAR
STARTCHAR Zcaron
ENCODING 174
SWIDTH 618 0
DWIDTH 16 0
BBX 15 22 0 0
BITMAP
030c
0198
00f0
0060
0000
1ffe
1c3e
187c
30f8
20f8
01f0
03e0
07c0
07c0
0f80
1f00
3e00
3e04
7c0c
f818
f838
fff8
ENDCHAR
STARTCHAR Zabovedot
ENCODING 175
SWIDTH 618 0
DWIDTH 16 0
BBX 15 22 0 0
BITMAP
0060
00f0
00f0
0060
0000
1ffe
1c3e
187c
30f8
20f8
01f0
03e0
07c0
07c0
0f80
1f00
3e00
3e04
7c0c
f818
f838
fff8
ENDCHAR
STARTCHAR degree
ENCODING 176
SWIDTH 375 0
DWIDTH 10 0
BBX 8 8 1 9
BITMAP
18
7e
66
c3
c3
66
7e
18
ENDCHAR
STARTCHAR aogonek
ENCODING 177
SWIDTH 596 0
DWIDTH 15 0
BBX 15 18 0 -5
BITMAP
07fc
1e7c
3c7c
3c7c
7cf8
78f8
f8f8
f8f8
f9f0
f9f2
fbf4
7df8
38f0
0180
0300
0600
0640
0380
ENDCHAR
STARTCHAR ogonek
ENCODING 178
SWIDTH 350 0
DWIDTH 9 0
BBX 5 5 2 -5
BITMAP
30
60
c0
c8
70
ENDCHAR
STARTCHAR lstroke
ENCODING 179
SWIDTH 339 0
DWIDTH 8 0
BBX 10 19 -1 0
BITMAP
0780
3f80
0f80
0f80
0f80
1f00
1f40
1f80
1f00
3e00
3e00
7e00
be00
3e00
7c00
7c80
7d00
7e00
3c00
ENDCHAR
STARTCHAR acute
ENCODING 180
SWIDTH 400 0
DWIDTH 10 0
BBX 6 5 2 14
BITMAP
08
1c
3c
70
c0
ENDCHAR
STARTCHAR lcaron
ENCODING 181
SWIDTH 560 0
DWIDTH 14 0
BBX 14 22 0 0
BITMAP
0018
003c
003c
0f1c
7f18
1f18
1f30
1f60
3e40
3e00
3e00
3e00
7c00
7c00
7c00
7c00
7c00
f800
f900
fa00
fc00
7800
ENDCHAR
STARTCHAR sacute
ENCODING 182
SWIDTH 417 0
DWIDTH 10 0
BBX 13 19 -1 0
BITMAP
0010
0038
0078
00e0
0180
0000
07e0
1cf0
3c70
3e20
3f00
1f00
1f80
0fc0
07c0
43c0
e3c0
f380
7e00
ENDCHAR
STARTCHAR caron
ENCODING 183
SWIDTH 400 0
DWIDTH 10 0
BBX 8 4 1 14
BITMAP
c3
66
3c
18
ENDCHAR
STARTCHAR cedilla
ENCODING 184
SWIDTH 400 0
DWIDTH 10 0
BBX 5 5 2 -5
BITMAP
20
70
18
18
f0
ENDCHAR
STARTCHAR scaron
ENCODING 185
SWIDTH 417 0
DWIDTH 10 0
BBX 12 18 -1 0
BITMAP
0c30
0660
03c0
0180
0000
07e0
1cf0
3c70
3e20
3f00
1f00
1f80
0fc0
07c0
43c0
e3c0
f380
7e00
ENDCHAR
STARTCHAR scedilla
ENCODING 186
SWIDTH 417 0
DWIDTH 10 0
BBX 12 18 -1 -5
BITMAP
07e0
1cf0
3c70
3e20
3f00
1f00
1f80
0fc0
07c0
43c0
e3c0
f380
7e00
0400
0e00
0300
0300
1e00
ENDCHAR
STARTCHAR tcaron
ENCODING 187
SWIDTH 480 0
DWIDTH 12 0
BBX 13 23 0 0
BITMAP
0030
0078
0078
0038
0030
0030
0260
06c0
1e80
3e00
ffc0
3e00
3e00
7c00
7c00
7c00
7c00
7c00
f800
f900
fa00
fc00
7800
ENDCHAR
STARTCHAR zacute
ENCODING 188
SWIDTH 466 0
DWIDTH 12 0
BBX 13 19 -1 0
BITMAP
0010
0038
0078
00e0
0180
0000
1ff8
1ff0
3fe0
31c0
2180
0300
0600
0c10
1c30
3ff0
7fe0
ffc0
c780
ENDCHAR
STARTCHAR doubleacute
ENCODING 189
SWIDTH 400 0
DWIDTH 10 0
BBX 7 5 1 14
BITMAP
66
66
cc
cc
88
ENDCHAR
STARTCHAR zcaron
ENCODING 190
SWIDTH 466 0
DWIDTH 12 0
BBX 13 18 -1 0
BITMAP
0c30
0660
03c0
0180
0000
1ff8
1ff0
3fe0
31c0
2180
0300
0600
0c10
1c30
3ff0
7fe0
ffc0
c780
ENDCHAR
STARTCHAR zabovedot
ENCODING 191
SWIDTH 466 0
DWIDTH 12 0
BBX 13 18 -1 0
BITMAP
0180
03c0
03c0
0180
0000
1ff8
1ff0
3fe0
31c0
2180
0300
0600
0c10
1c30
3ff0
7fe0
ffc0
c780
ENDCHAR
STARTCHAR Racute
ENCODING 192
SWIDTH 681 0
DWIDTH 17 0
BBX 18 23 -1 0
BITMAP
000200
000700
000f00
001c00
003000
000000
1ffe00
0fcf00
0f8f80
0f8f80
0f8f80
1f0f80
1f0f00
1f1e00
1ffc00
1f3e00
1f3e00
3e3e00
3e1f00
3e1f00
3e1f00
7e1f80
ff0fc0
ENDCHAR
STARTCHAR Aacute
ENCODING 193
SWIDTH 634 0
DWIDTH 16 0
BBX 18 21 -2 0
BITMAP
000400
000e00
001e00
003800
006000
000000
003c00
007c00
007c00
00bc00
01be00
013e00
023e00
063e00
07fe00
081f00
181f00
101f00
201f00
601f80
f83fc0
ENDCHAR
STARTCHAR Acircumflex
ENCODING 194
SWIDTH 634 0
DWIDTH 16 0
BBX 18 20 -2 0
BITMAP
001800
003c00
006600
00c300
000000
003c00
007c00
007c00
00bc00
01be00
013e00
023e00
063e00
07fe00
081f00
181f00
101f00
201f00
601f80
f83fc0
ENDCHAR
STARTCHAR Abreve
ENCODING 195
SWIDTH 634 0
DWIDTH 16 0
BBX 18 22 -2 0
BITMAP
008100
00c300
007e00
003c00
000000
007c00
007c00
00fc00
00fc00
01fc00
013e00
033e00
023e00
063e00
043e00
0ffe00
081f00
181f00
101f00
301f00
701f80
f83fc0
ENDCHAR
STARTCHAR Adiaeresis
ENCODING 196
SWIDTH 634 0
DWIDTH 16 0
BBX 18 20 -2 0
BITMAP
00c300
01e780
01e780
00c300
000000
003c00
007c00
007c00
00bc00
01be00
013e00
023e00
063e00
07fe00
081f00
181f00
101f00
201f00
601f80
f83fc0
ENDCHAR
STARTCHAR Lacute
ENCODING 197
SWIDTH 586 0
DWIDTH 15 0
BBX 15 23 -1 0
BITMAP
0010
0038
0078
00e0
0180
0000
1fe0
0fc0
0f80
0f80
0f80
0f80
1f00
1f00
1f00
1f00
1f00
3e00
3e02
3e06
3e0e
7e1c
fffc
ENDCHAR
STARTCHAR Cacute
ENCODING 198
SWIDTH 672 0
DWIDTH 17 0
BBX 16 23 0 0
BITMAP
0004
000e
001e
0038
0060
0000
03ff
0f87
1f02
3e02
3e00
7c00
7c00
7c00
f800
f800
f800
f800
f804
780c
781c
3c38
0fe0
ENDCHAR
STARTCHAR Ccedilla
ENCODING 199
SWIDTH 672 0
DWIDTH 17 0
BBX 16 22 0 -5
BITMAP
03ff
0f87
1f02
3e02
3e00
7c00
7c00
7c00
f800
f800
f800
f800
f804
780c
781c
3c38
0fe0
0100
0380
00c0
00c0
0780
ENDCHAR
STARTCHAR Ccaron
ENCODING 200
SWIDTH 672 0
DWIDTH 17 0
BBX 16 22 0 0
BITMAP
030c
0198
00f0
0060
0000
03ff
0f87
1f02
3e02
3e00
7c00
7c00
7c00
f800
f800
f800
f800
f804
780c
781c
3c38
0fe0
ENDCHAR
STARTCHAR Eacute
ENCODING 201
SWIDTH 622 0
DWIDTH 16 0
BBX 16 21 -1 0
BITMAP
0010
0038
0078
00e0
0180
0000
1fff
0fc7
0f82
0f82
0f80
1f04
1f0c
1ffc
1f08
1f08
3e02
3e06
3e0e
7e1c
fffc
ENDCHAR
STARTCHAR Eogonek
ENCODING 202
SWIDTH 622 0
DWIDTH 16 0
BBX 16 22 -1 -5
BITMAP
1fff
0fc7
0f82
0f82
0f80
0f84
1f0c
1ffc
1f08
1f08
1f00
3e00
3e02
3e06
3e0e
7e1c
fffc
0180
0300
0600
0640
0380
ENDCHAR
STARTCHAR Ediaeresis
ENCODING 203
SWIDTH 622 0
DWIDTH 16 0
BBX 16 20 -1 0
BITMAP
030c
079e
079e
030c
0000
1fff
0fc7
0f82
0f82
0f80
1f04
1f0c
1ffc
1f08
1f08
3e02
3e06
3e0e
7e1c
fffc
ENDCHAR
STARTCHAR Ecaron
ENCODING 204
SWIDTH 622 0
DWIDTH 16 0
BBX 16 22 -1 0
BITMAP
030c
0198
00f0
0060
0000
1fff
0fc7
0f82
0f82
0f80
0f84
1f0c
1ffc
1f08
1f08
1f00
3e00
3e02
3e06
3e0e
7e1c
fffc
ENDCHAR
STARTCHAR Iacute
ENCODING 205
SWIDTH 386 0
DWIDTH 10 0
BBX 11 21 -1 0
BITMAP
0040
00e0
01e0
0380
0600
0000
1fe0
0fc0
0f80
0f80
0f80
1f00
1f00
1f00
1f00
1f00
3e00
3e00
3e00
7e00
ff00
ENDCHAR
STARTCHAR Icircumflex
ENCODING 206
SWIDTH 386 0
DWIDTH 10 0
BBX 11 20 -1 0
BITMAP
0300
0780
0cc0
1860
0000
1fe0
0fc0
0f80
0f80
0f80
1f00
1f00
1f00
1f00
1f00
3e00
3e00
3e00
7e00
ff00
ENDCHAR
STARTCHAR Dcaron
ENCODING 207
SWIDTH 774 0
DWIDTH 20 0
BBX 20 22 -1 0
BITMAP
00c300
006600
003c00
001800
000000
1fff00
0fc3c0
0f81e0
0f81e0
0f81f0
0f81f0
1f01f0
1f01f0
1f01f0
1f03e0
1f03e0
3e03e0
3e07c0
3e07c0
3e0f80
7e1f00
fffc00
ENDCHAR
STARTCHAR Dstroke
ENCODING 208
SWIDTH 780 0
DWIDTH 20 0
BBX 20 17 -1 0
BITMAP
1fff00
0fc3c0
0f81e0
0f81e0
0f81f0
0f81f0
1f01f0
7fc1f0
1f01f0
1f03e0
1f03e0
3e03e0
3e07c0
3e07c0
3e0f80
7e1f00
fffc00
ENDCHAR
STARTCHAR Nacute
ENCODING 209
SWIDTH 741 0
DWIDTH 19 0
BBX 20 23 -1 0
BITMAP
000100
000380
000780
000e00
001800
000000
1f81f0
0f80e0
0fc0c0
0fc0c0
0fe0c0
1be180
1bf180
19f180
19f980
18f980
18fd80
307d00
307f00
303f00
303f00
701f00
f81f00
ENDCHAR
STARTCHAR Ncaron
ENCODING 210
SWIDTH 741 0
DWIDTH 19 0
BBX 20 22 -1 0
BITMAP
00c300
006600
003c00
001800
000000
1f81f0
0f80e0
0fc0c0
0fc0c0
0fe0c0
1be180
1bf180
19f180
19f980
18f980
18fd80
307d00
307f00
303f00
303f00
701f00
f81f00
ENDCHAR
STARTCHAR Oacute
ENCODING 211
SWIDTH 761 0
DWIDTH 19 0
BBX 18 21 0 0
BITMAP
000800
001c00
003c00
007000
00c000
000000
03fc00
0f8f00
1f0780
3e0780
3e07c0
7c07c0
7c07c0
f807c0
f80f80
f80f80
f81f00
781f00
783e00
3c7c00
0ff000
ENDCHAR
STARTCHAR Ocircumflex
ENCODING 212
SWIDTH 761 0
DWIDTH 19 0
BBX 18 20 0 0
BITMAP
006000
00f000
019800
030c00
000000
03fc00
0f8f00
1f0780
3e0780
3e07c0
7c07c0
7c07c0
f807c0
f80f80
f80f80
f81f00
781f00
783e00
3c7c00
0ff000
ENDCHAR
STARTCHAR Odoubleacute
ENCODING 213
SWIDTH 761 0
DWIDTH 19 0
BBX 18 23 0 0
BITMAP
006600
006600
00cc00
00cc00
008800
000000
03fc00
0f8f00
1f0780
3e0780
3e07c0
7c07c0
7c07c0
7c07c0
f807c0
f80f80
f80f80
f80f80
f81f00
781f00
783e00
3c7c00
0ff000
ENDCHAR
STARTCHAR Odiaeresis
ENCODING 214
SWIDTH 761 0
DWIDTH 19 0
BBX 18 20 0 0
BITMAP
018600
03cf00
03cf00
018600
000000
03fc00
0f8f00
1f0780
3e0780
3e07c0
7c07c0
7c07c0
f807c0
f80f80
f80f80
f81f00
781f00
783e00
3c7c00
0ff000
ENDCHAR
STARTCHAR multiply
ENCODING 215
SWIDTH 600 0
DWIDTH 15 0
BBX 11 11 2 1
BITMAP
4040
e0e0
71c0
3b80
1f00
0e00
1f00
3b80
71c0
e0e0
4040
ENDCHAR
STARTCHAR Rcaron
ENCODING 216
SWIDTH 681 0
DWIDTH 17 0
BBX 18 22 -1 0
BITMAP
018600
00cc00
007800
003000
000000
1ffe00
0fcf00
0f8f80
0f8f80
0f8f80
1f0f80
1f0f00
1f1e00
1ffc00
1f3e00
1f3e00
3e3e00
3e1f00
3e1f00
3e1f00
7e1f80
ff0fc0
ENDCHAR
STARTCHAR Uring
ENCODING 217
SWIDTH 776 0
DWIDTH 19 0
BBX 19 23 1 0
BITMAP
007800
00cc00
00cc00
00cc00
007800
000000
7f9fe0
3f0fc0
3e0f80
3e0f80
3e0f80
7c1f00
7c1f00
7c1f00
7c1f00
7c1f00
f83e00
f83e00
f83e00
f83e00
f83c00
7c7800
1fe000
ENDCHAR
STARTCHAR Uacute
ENCODING 218
SWIDTH 776 0
DWIDTH 20 0
BBX 19 21 1 0
BITMAP
000800
001c00
003c00
007000
00c000
000000
7f9fe0
3f0fc0
3e0f80
3e0f80
3e0f80
7c1f00
7c1f00
7c1f00
7c1f00
f83e00
f83e00
f83e00
f83c00
7c7800
1fe000
ENDCHAR
STARTCHAR Udoubleacute
ENCODING 219
SWIDTH 776 0
DWIDTH 19 0
BBX 19 23 1 0
BITMAP
006600
006600
00cc00
00cc00
008800
000000
7f9fe0
3f0fc0
3e0f80
3e0f80
3e0f80
7c1f00
7c1f00
7c1f00
7c1f00
7c1f00
f83e00
f83e00
f83e00
f83e00
f83c00
7c7800
1fe000
ENDCHAR
STARTCHAR Udiaeresis
ENCODING 220
SWIDTH 776 0
DWIDTH 20 0
BBX 19 20 1 0
BITMAP
030c00
079e00
079e00
030c00
000000
7f9fe0
3f0fc0
3e0f80
3e0f80
3e0f80
7c1f00
7c1f00
7c1f00
7c1f00
f83e00
f83e00
f83e00
f83c00
7c7800
1fe000
ENDCHAR
STARTCHAR Yacute
ENCODING 221
SWIDTH 622 0
DWIDTH 16 0
BBX 16 21 1 0
BITMAP
0008
001c
003c
0070
00c0
0000
fe1f
7c0e
7c0c
7c18
3e30
3e60
3ec0
1f80
1f00
1f00
3e00
3e00
3e00
7e00
ff00
ENDCHAR
STARTCHAR Tcedilla
ENCODING 222
SWIDTH 616 0
DWIDTH 16 0
BBX 16 22 1 -5
BITMAP
ffff
e7e7
c7c2
87c2
07c0
0f80
0f80
0f80
0f80
0f80
0f80
1f00
1f00
1f00
1f00
3f00
7f80
0100
0380
00c0
00c0
0780
ENDCHAR
STARTCHAR ssharp
ENCODING 223
SWIDTH 628 0
DWIDTH 16 0
BBX 21 24 -4 -5
BITMAP
000fe0
003c70
007838
00f038
01f038
01f030
0fe0e0
03e380
03e700
03ef00
03ef80
07cfc0
07c7e0
07c3f0
07c1f0
07c0f0
0f98f0
0f9ce0
0f8f80
0f8000
0f8000
cf0000
ee0000
7c0000
ENDCHAR
STARTCHAR racute
ENCODING 224
SWIDTH 440 0
DWIDTH 11 0
BBX 13 19 0 0
BITMAP
0020
0070
00f0
01c0
0300
0000
1e70
fef8
3f78
3e30
3e00
7c00
7c00
7c00
7c00
f800
f800
f800
f800
ENDCHAR
STARTCHAR aacute
ENCODING 225
SWIDTH 596 0
DWIDTH 15 0
BBX 15 19 0 0
BITMAP
0008
001c
003c
0070
00c0
0000
07fc
1e7c
3c7c
3c7c
7cf8
78f8
f8f8
f8f8
f9f0
f9f2
fbf4
7df8
38f0
ENDCHAR
STARTCHAR acircumflex
ENCODING 226
SWIDTH 596 0
DWIDTH 15 0
BBX 15 18 0 0
BITMAP
00c0
01e0
0330
0618
0000
07fc
1e7c
3c7c
3c7c
7cf8
78f8
f8f8
f8f8
f9f0
f9f2
fbf4
7df8
38f0
ENDCHAR
STARTCHAR abreve
ENCODING 227
SWIDTH 596 0
DWIDTH 15 0
BBX 15 18 0 0
BITMAP
0408
0618
03f0
01e0
0000
07fc
1e7c
3c7c
3c7c
7cf8
78f8
f8f8
f8f8
f9f0
f9f2
fbf4
7df8
38f0
ENDCHAR
STARTCHAR adiaeresis
ENCODING 228
SWIDTH 596 0
DWIDTH 15 0
BBX 15 18 0 0
BITMAP
0618
0f3c
0f3c
0618
0000
07fc
1e7c
3c7c
3c7c
7cf8
78f8
f8f8
f8f8
f9f0
f9f2
fbf4
7df8
38f0
ENDCHAR
STARTCHAR lacute
ENCODING 229
SWIDTH 327 0
DWIDTH 8 0
BBX 10 25 0 0
BITMAP
0080
01c0
03c0
0700
0c00
0000
0f00
7f00
1f00
1f00
1f00
3e00
3e00
3e00
3e00
7c00
7c00
7c00
7c00
7c00
f800
f900
fa00
fc00
7800
ENDCHAR
STARTCHAR cacute
ENCODING 230
SWIDTH 456 0
DWIDTH 12 0
BBX 13 19 0 0
BITMAP
0010
0038
0078
00e0
0180
0000
07e0
1e70
3c70
7c20
7c00
f800
f800
f800
f800
f820
f860
7cc0
3f00
ENDCHAR
STARTCHAR ccedilla
ENCODING 231
SWIDTH 456 0
DWIDTH 12 0
BBX 11 18 1 -5
BITMAP
07c0
1ee0
3ce0
7c40
7800
f800
f800
f000
f000
f040
f0c0
7180
3e00
0400
0e00
0300
0300
1e00
ENDCHAR
STARTCHAR ccaron
ENCODING 232
SWIDTH 456 0
DWIDTH 12 0
BBX 12 18 0 0
BITMAP
0c30
0660
03c0
0180
0000
07e0
1e70
3c70
7c20
7c00
f800
f800
f800
f800
f820
f860
7cc0
3f00
ENDCHAR
STARTCHAR eacute
ENCODING 233
SWIDTH 476 0
DWIDTH 12 0
BBX 12 19 0 0
BITMAP
0040
00e0
01e0
0380
0600
0000
07e0
1ef0
3cf0
7cf0
7de0
f9c0
fb80
fe00
f800
f820
f860
7cc0
3f00
ENDCHAR
STARTCHAR eogonek
ENCODING 234
SWIDTH 476 0
DWIDTH 12 0
BBX 12 18 0 -5
BITMAP
07e0
1ef0
3cf0
7cf0
7de0
f9c0
fb80
fe00
f800
f820
f860
7cc0
3f00
0600
0c00
1800
1900
0e00
ENDCHAR
STARTCHAR ediaeresis
ENCODING 235
SWIDTH 476 0
DWIDTH 12 0
BBX 12 18 0 0
BITMAP
1860
3cf0
3cf0
1860
0000
07e0
1ef0
3cf0
7cf0
7de0
f9c0
fb80
fe00
f800
f820
f860
7cc0
3f00
ENDCHAR
STARTCHAR ecaron
ENCODING 236
SWIDTH 476 0
DWIDTH 12 0
BBX 12 18 0 0
BITMAP
0c30
0660
03c0
0180
0000
07e0
1ef0
3cf0
7cf0
7de0
f9c0
fb80
fe00
f800
f820
f860
7cc0
3f00
ENDCHAR
STARTCHAR iacute
ENCODING 237
SWIDTH 339 0
DWIDTH 8 0
BBX 9 19 0 0
BITMAP
0100
0380
0780
0e00
1800
0000
1e00
fe00
3e00
3e00
3c00
7c00
7c00
7c00
7800
f900
fa00
fc00
7800
ENDCHAR
STARTCHAR icircumflex
ENCODING 238
SWIDTH 339 0
DWIDTH 9 0
BBX 8 18 1 0
BITMAP
18
3c
66
c3
00
1c
fc
3c
3c
78
78
78
78
f0
f2
f4
f8
70
ENDCHAR
STARTCHAR dcaron
ENCODING 239
SWIDTH 840 0
DWIDTH 21 0
BBX 21 22 0 0
BITMAP
000030
000078
000078
001e38
00fe30
003e30
003e60
003ec0
007c80
07fc00
1e7c00
3c7c00
3c7c00
7cf800
78f800
f8f800
f8f800
f9f000
f9f200
fbf400
7df800
38f000
ENDCHAR
STARTCHAR dstroke
ENCODING 240
SWIDTH 800 0
DWIDTH 20 0
BBX 20 19 0 0
BITMAP
001e00
00fe00
003e00
07fff0
07fff0
007c00
07fc00
1e7c00
3c7c00
3c7c00
7cf800
78f800
f8f800
f8f800
f9f000
f9f200
fbf400
7df800
38f000
ENDCHAR
STARTCHAR nacute
ENCODING 241
SWIDTH 635 0
DWIDTH 16 0
BBX 16 19 0 0
BITMAP
0010
0038
0078
00e0
0180
0000
1e3c
fe7e
3ebe
3d3e
3e3e
7e7c
7c7c
7c7c
7c7c
f8f9
f8fa
f8fc
f878
ENDCHAR
STARTCHAR ncaron
ENCODING 242
SWIDTH 635 0
DWIDTH 16 0
BBX 16 18 0 0
BITMAP
0c30
0660
03c0
0180
0000
1e3c
fe7e
3ebe
3d3e
3e3e
7e7c
7c7c
7c7c
7c7c
f8f9
f8fa
f8fc
f878
ENDCHAR
STARTCHAR oacute
ENCODING 243
SWIDTH 562 0
DWIDTH 14 0
BBX 14 19 0 0
BITMAP
0020
0070
00f0
01c0
0300
0000
07f0
1ef8
3c7c
7c7c
7c7c
f87c
f87c
f87c
f8f8
f8f8
f8f0
7de0
3f80
ENDCHAR
STARTCHAR ocircumflex
ENCODING 244
SWIDTH 562 0
DWIDTH 14 0
BBX 14 18 0 0
BITMAP
0180
03c0
0660
0c30
0000
07f0
1ef8
3c7c
7c7c
7c7c
f87c
f87c
f87c
f8f8
f8f8
f8f0
7de0
3f80
ENDCHAR
STARTCHAR odoubleacute
ENCODING 245
SWIDTH 562 0
DWIDTH 14 0
BBX 14 19 0 0
BITMAP
0198
0198
0330
0330
0220
0000
07f0
1ef8
3c7c
7c7c
7c7c
f87c
f87c
f87c
f8f8
f8f8
f8f0
7de0
3f80
ENDCHAR
STARTCHAR odiaeresis
ENCODING 246
SWIDTH 562 0
DWIDTH 14 0
BBX 14 18 0 0
BITMAP
0c30
1e78
1e78
0c30
0000
07f0
1ef8
3c7c
7c7c
7c7c
f87c
f87c
f87c
f8f8
f8f8
f8f0
7de0
3f80
ENDCHAR
STARTCHAR division
ENCODING 247
SWIDTH 600 0
DWIDTH 15 0
BBX 13 12 1 0
BITMAP
0700
0700
0700
0000
0000
fff8
fff8
0000
0000
0700
0700
0700
ENDCHAR
STARTCHAR rcaron
ENCODING 248
SWIDTH 440 0
DWIDTH 11 0
BBX 13 18 0 0
BITMAP
1860
0cc0
0780
0300
0000
1e70
fef8
3f78
3e30
3e00
7c00
7c00
7c00
7c00
f800
f800
f800
f800
ENDCHAR
STARTCHAR uring
ENCODING 249
SWIDTH 634 0
DWIDTH 16 0
BBX 16 19 0 0
BITMAP
03c0
0660
0660
0660
03c0
0000
1e3e
fe3e
3e3e
3e3e
7c7c
7c7c
7c7c
7cfc
7cfc
f979
fafa
fcfc
7878
ENDCHAR
STARTCHAR uacute
ENCODING 250
SWIDTH 634 0
DWIDTH 16 0
BBX 16 19 0 0
BITMAP
0010
0038
0078
00e0
0180
0000
1e3e
fe3e
3e3e
3e3e
7c7c
7c7c
7c7c
7cfc
7cfc
f979
fafa
fcfc
7878
ENDCHAR
STARTCHAR udoubleacute
ENCODING 251
SWIDTH 634 0
DWIDTH 16 0
BBX 16 19 0 0
BITMAP
0330
0330
0660
0660
0440
0000
1e3e
fe3e
3e3e
3e3e
7c7c
7c7c
7c7c
7cfc
7cfc
f979
fafa
fcfc
7878
ENDCHAR
STARTCHAR udiaeresis
ENCODING 252
SWIDTH 634 0
DWIDTH 16 0
BBX 16 18 0 0
BITMAP
0618
0f3c
0f3c
0618
0000
1e3e
fe3e
3e3e
3e3e
7c7c
7c7c
7c7c
7cfc
7cfc
f979
fafa
fcfc
7878
ENDCHAR
STARTCHAR yacute
ENCODING 253
SWIDTH 489 0
DWIDTH 12 0
BBX 15 24 -3 -5
BITMAP
0008
001c
003c
0070
00c0
0000
078e
3f9e
0f8e
0f8e
0f8e
0f8c
07cc
07c8
07d0
07d0
07e0
07c0
0780
0780
6700
f600
f400
7800
ENDCHAR
STARTCHAR tcedilla
ENCODING 254
SWIDTH 359 0
DWIDTH 9 0
BBX 10 22 0 -5
BITMAP
0200
0600
1e00
3e00
ffc0
3e00
3e00
7c00
7c00
7c00
7c00
7c00
f800
f900
fa00
fc00
7800
0800
1c00
0600
0600
3c00
ENDCHAR
STARTCHAR abovedot
ENCODING 255
SWIDTH 402 0
DWIDTH 10 0
BBX 4 4 3 14
BITMAP
60
f0
f0
60
ENDCHAR
ENDFONT
